Coordinates
version=1
nRows=21
nColumns=33
inDegrees=yes

Units are S.I. units (second, meters, Newtons, ...)
Angles are in degrees.

endheader
time	ground_thorax_rot_x	ground_thorax_rot_y	ground_thorax_rot_z	ground_thorax_tx	ground_thorax_ty	ground_thorax_tz	clav_prot_r	clav_elev_r	scapula_abduction_r	scapula_elevation_r	scapula_upward_rot_r	scapula_winging_r	shoulder_elv_r	plane_of_elev_r	axial_rot_r	elbow_flexion_r	pro_sup_r	wrist_flex_r	wrist_dev_r	clav_prot_l	clav_elev_l	scapula_abduction_l	scapula_elevation_l	scapula_upward_rot_l	scapula_winging_l	shoulder_elv_l	plane_of_elev_l	axial_rot_l	elbow_flexion_l	pro_sup_l	wrist_flex_l	wrist_dev_l
      9.33000000	    -40.31496790	     -6.80199333	      5.03624977	   -168.75625465	    883.55208191	     -8.85551336	      9.39674836	    -45.00000000	     39.32630506	    -45.00000000	    -30.95970491	   2421.17256231	    432.12220511	     30.90086005	     84.77269414	   1458.13161368	     70.41621154	     18.04731613	      3.74394975	     16.23700550	     39.11681500	    -40.98797576	    -45.00000000	    -43.96485754	    806.00129920	  -2975.22822750	    139.29491341	    159.53687027	     14.47818806	     58.04967137	      3.69649946	    -21.82894190
      9.34000000	    -40.36591385	     -6.45923251	      4.67108239	   -166.05833403	    885.90834010	     -8.76186437	      9.41204100	    -45.00000000	     39.80191645	    -45.00000000	    -29.83728781	   2421.11213417	    432.26379972	     31.06619209	     84.32440355	   1458.24768913	     71.95188772	     17.89833491	      3.60550893	     15.80502014	     39.27002056	    -41.21516695	    -45.00000000	    -43.11515872	    806.33323552	  -2975.09377524	    139.04817390	    159.78829810	     14.52354922	     58.21232168	      3.74247453	    -21.93753180
      9.35000000	    -40.45339616	     -6.14155616	      4.28190367	   -163.24325356	    888.10029069	     -8.67381453	      9.29256291	    -45.00000000	     40.23359622	    -45.00000000	    -28.36865111	   2421.13992051	    432.40317176	     31.10692081	     84.08516198	   1458.41931789	     73.40947378	     17.80704392	      3.47779587	     15.79180038	     39.48707900	    -41.48916211	    -45.00000000	    -42.24155334	    806.52762511	  -2975.02996993	    139.01901618	    160.16556212	     14.52137375	     58.24684379	      3.71141009	    -21.92859608
      9.36000000	    -40.54058422	     -5.80835803	      3.97014103	   -160.30869574	    890.11416321	     -8.59170937	      9.28445608	    -45.00000000	     40.53066909	    -45.00000000	    -27.14278727	   2421.05374263	    432.55555133	     31.30404368	     83.72726361	   1458.68489764	     74.62312026	     17.58696527	      3.28702220	     15.35770993	     39.59899760	    -41.72113141	    -45.00000000	    -41.31838168	    806.73968325	  -2974.93140652	    138.91339053	    160.54422360	     14.56012121	     58.17382538	      3.77752927	    -22.05749142
      9.37000000	    -40.58836601	     -5.53212817	      3.66083079	   -157.25799393	    891.92958724	     -8.51585463	      8.97065714	    -45.00000000	     41.05836947	    -45.00000000	    -25.17393349	   2421.15506737	    432.73883055	     31.06621321	     83.73287050	   1458.73438236	     76.03905553	     17.66348141	      3.25469012	     16.02962231	     39.90579234	    -41.98615619	    -45.00000000	    -40.56184903	    806.74852527	  -2974.90281013	    138.96334719	    161.32083199	     14.51401615	     57.86734357	      3.64495875	    -21.86953472
      9.38000000	    -40.63383329	     -5.16899957	      3.31113220	   -154.09348598	    893.52625572	     -8.44609201	      8.82122293	    -45.00000000	     41.48266877	    -45.00000000	    -23.49661362	   2421.13331100	    432.85270295	     31.08136406	     83.65383938	   1458.89853805	     77.31422100	     17.52199414	      3.12732317	     16.04747161	     40.09304773	    -42.27609318	    -45.00000000	    -39.71039949	    806.81811613	  -2974.84899579	    138.90973758	    161.97057879	     14.47342531	     57.36815258	      3.69759130	    -21.91559991
      9.39000000	    -40.74501947	     -4.91117310	      3.00503290	   -150.82282685	    894.87833193	     -8.38192775	      8.72474890	    -45.00000000	     41.92435148	    -45.00000000	    -22.18573441	   2421.17600157	    432.89068903	     31.16179754	     83.17305257	   1458.97349929	     78.34240512	     17.37295179	      3.03773686	     15.82741697	     40.32575979	    -42.53153219	    -45.00000000	    -38.79441098	    807.10661399	  -2974.86675011	    138.74890905	    162.41023345	     14.39096989	     56.70616719	      3.83052498	    -21.99841896
      9.40000000	    -40.78834119	     -4.62543099	      2.73399948	   -147.44985711	    895.96056652	     -8.32124661	      8.55981990	    -45.00000000	     42.33186617	    -45.00000000	    -20.61852689	   2421.22153894	    432.99659498	     31.15487541	     82.93448524	   1459.10574808	     79.29463273	     17.30332023	      2.95288853	     15.91599746	     40.53889946	    -42.77183561	    -45.00000000	    -37.94556227	    807.14749442	  -2974.84946357	    138.68278255	    163.11026004	     14.27864161	     55.74820279	      3.93094252	    -22.02192358
      9.41000000	    -40.84994544	     -4.38991289	      2.51601303	   -143.98100946	    896.74780870	     -8.26016736	      8.48421454	    -45.00000000	     42.70994953	    -45.00000000	    -19.40803609	   2421.27340836	    433.01375036	     31.24858681	     82.53982435	   1459.13985479	     80.08953016	     17.12645615	      2.87753752	     15.73629500	     40.66555871	    -43.02346119	    -45.00000000	    -37.24708353	    807.28036328	  -2974.83237495	    138.47806823	    163.86439916	     14.14738000	     54.58085537	      4.14372170	    -22.14077052
      9.42000000	    -40.92001739	     -4.06424656	      2.22609764	   -140.42035900	    897.21669756	     -8.19334288	      8.24965165	    -45.00000000	     43.11415859	    -45.00000000	    -17.63923601	   2421.29326419	    433.02366297	     31.19071105	     82.15236165	   1459.29987438	     80.84201208	     17.12047921	      2.81663095	     15.90008818	     40.98214429	    -43.32974524	    -45.00000000	    -36.22924604	    807.33507490	  -2974.96858695	    138.48638292	    164.49830664	     13.93933240	     52.96944207	      4.35669272	    -22.19896103
      9.43000000	    -40.92726401	     -3.77303778	      1.99148596	   -136.76837777	    897.34928293	     -8.11499911	      8.07245967	    -45.00000000	     43.51150369	    -45.00000000	    -16.09562795	   2421.33623851	    433.04091027	     31.18958308	     81.89756310	   1459.35779393	     81.50436966	     17.04539350	      2.77200226	     15.96737581	     41.18311333	    -43.56204728	    -45.00000000	    -35.43049071	    807.30080327	  -2975.02517737	    138.37678082	    165.34578583	     13.72751044	     50.91067160	      4.66239745	    -22.31483791
      9.44000000	    -40.97019877	     -3.40921497	      1.63163908	   -133.02982944	    897.13156067	     -8.02019807	      7.86973498	    -45.00000000	     43.90690162	    -45.00000000	    -14.37361557	   2421.35832573	    432.94033189	     31.18561783	     81.58372640	   1459.47861492	     82.11408389	     17.02305626	      2.73627006	     16.06883790	     41.44576403	    -43.83125783	    -45.00000000	    -34.49244191	    807.24979547	  -2975.13307646	    138.32984289	    165.95944689	     13.39760516	     48.23121220	      5.09179159	    -22.45418701
      9.45000000	    -41.03353512	     -3.16073458	      1.37089478	   -129.19337810	    896.55628968	     -7.90528140	      7.71273216	    -45.00000000	     44.32132422	    -45.00000000	    -12.89936329	   2421.42201378	    432.79367592	     31.18697018	     81.16939012	   1459.53805833	     82.63403450	     16.99505677	      2.72700092	     16.10383829	     41.67669453	    -44.13891469	    -45.00000000	    -33.65718748	    807.27886278	  -2975.30503006	    138.28963018	    166.63810286	     13.03766704	     45.02114641	      5.60191757	    -22.58690049
      9.46000000	    -41.02802177	     -3.03917832	      1.26105295	   -125.27164904	    895.62356635	     -7.76970946	      7.57483614	    -45.00000000	     44.70685455	    -45.00000000	    -11.69953072	   2421.51217132	    432.69677319	     31.17504215	     80.69334038	   1459.55029361	     83.01976287	     16.97519834	      2.73971685	     16.14069161	     41.86237656	    -44.32713184	    -45.00000000	    -33.04736318	    807.26010324	  -2975.46051416	    138.09930100	    167.58292030	     12.64811012	     41.56132697	      6.22691388	    -22.74192121
      9.47000000	    -41.08027408	     -3.07477405	      1.16651761	   -121.25090124	    894.33579775	     -7.61478673	      7.49887675	    -45.00000000	     45.00000000	    -45.00000000	    -11.09602051	   2421.73516135	    432.49218668	     31.32052051	     80.23543929	   1459.60475892	     83.29293643	     16.82879559	      2.73508284	     15.73141633	     41.93144681	    -44.42560515	    -45.00000000	    -32.53894007	    807.39923866	  -2975.59692217	    137.81636938	    168.23699054	     12.34750596	     38.21499189	      6.89795929	    -22.89233420
      9.48000000	    -41.08537214	     -2.94030684	      1.12648665	   -117.14031816	    892.70491979	     -7.44481477	      7.54815559	    -45.00000000	     45.00000000	    -45.00000000	    -11.00176971	   2421.94435756	    432.19062921	     31.66150278	     79.60364309	   1459.50749406	     83.45016693	     16.39221066	      2.72212579	     14.72007730	     41.91299188	    -44.67153306	    -45.00000000	    -31.89042002	    807.51287561	  -2975.78448195	    137.52827494	    168.40678720	     12.03783342	     35.32484305	      7.83389909	    -23.14635642
      9.49000000	    -41.02988969	     -2.16590381	      0.61444029	   -112.94105173	    890.74366009	     -7.26536355	      6.71414251	    -45.00000000	     45.00000000	    -45.00000000	     -8.19792919	   2422.20072303	    431.96476750	     31.10800444	     79.73811051	   1459.52440794	     83.72425689	     16.91329150	      2.84382779	     16.27091577	     42.49677925	    -45.00000000	    -45.00000000	    -30.55538786	    806.69318094	  -2976.07053854	    137.97911506	    169.36441120	     11.48735983	     30.24349691	      8.32827314	    -22.89468219
      9.50000000	    -41.00737707	     -2.25181400	      0.64237206	   -108.65750736	    888.47578795	     -7.08185828	      6.59614762	    -45.00000000	     45.00000000	    -45.00000000	     -7.77440428	   2422.62574145	    431.78777536	     31.11689652	     79.23144173	   1459.55722882	     83.86471586	     16.97733026	      2.90984892	     16.04600210	     42.65659389	    -45.00000000	    -45.00000000	    -29.98419270	    806.60763983	  -2976.36701201	    137.79439042	    169.76598681	     11.10159528	     26.03499694	      9.05524339	    -22.79823291
      9.51000000	    -40.98818986	     -2.29328098	      0.61418931	   -104.29244190	    885.91826894	     -6.89895228	      6.58104800	    -45.00000000	     45.00000000	    -45.00000000	     -7.67763327	   2423.12529390	    431.53394499	     31.19024518	     78.65945593	   1459.56223171	     83.88702008	     17.06683657	      2.99876757	     15.69890319	     42.76222738	    -45.00000000	    -45.00000000	    -29.43071151	    806.55278120	  -2976.61887426	    137.49947437	    169.95272017	     10.77243551	     22.60505176	      9.70626141	    -22.67158568
      9.52000000	    -40.95426556	     -2.10443398	      0.48251320	    -99.85795489	    883.09345084	     -6.71947496	      6.18059485	    -45.00000000	     45.00000000	    -45.00000000	     -6.72209671	   2423.42432754	    431.15947209	     31.08608452	     78.17292232	   1459.53346282	     83.75307807	     17.09595569	      3.07064641	     15.94584296	     43.00530405	    -45.00000000	    -45.00000000	    -28.73559733	    805.95636095	  -2976.78758867	    137.59808047	    170.60769835	     10.46198465	     18.92090865	     10.43290281	    -22.47387612
      9.53000000	    -40.93491325	     -2.22008658	      0.55077288	    -95.36292587	    880.02282799	     -6.54346609	      6.15812388	    -45.00000000	     45.00000000	    -45.00000000	     -6.64791075	   2423.88406449	    430.82993077	     31.07907425	     77.50069716	   1459.50443765	     83.47729664	     17.19950846	      3.17825806	     15.75468600	     43.10429424	    -45.00000000	    -45.00000000	    -28.33246460	    805.75468824	  -2977.10201379	    137.40561578	    170.87923729	     10.18871565	     15.98497334	     10.91839516	    -22.23840258
